<svg xmlns="http://www.w3.org/2000/svg" width="260.271" height="50" viewBox="0 0 260.271 50"><defs><style>.a{fill:#fff;}.b{fill:#00c4b3;}.c{fill:#01ebc7;}</style></defs><path class="a" d="M0,26.684l16.674-.023-.023,16.651Z" transform="translate(0 6.665)"/><path class="b" d="M43.335,30.013l-.023-16.674L26.661,29.991V46.665Z" transform="translate(6.665 3.335)"/><path class="c" d="M29.991,29.995,46.643,13.344l-16.651-.023L13.339,29.995Z" transform="translate(3.335 3.33)"/><path class="b" d="M29.991,0V16.651L13.339,33.326V16.651Z" transform="translate(3.335)"/><path class="c" d="M0,16.651H16.674L33.326,0,16.651.022Z"/><path class="a" d="M53,46.5V14h6.447V40.645H76.114V46.5Z" transform="translate(13.25 3.5)"/><path class="a" d="M83.661,23a7.959,7.959,0,0,1,6.255,2.806V23.535h5.441V43.757H89.916V41.486A7.9,7.9,0,0,1,83.7,44.25c-5.634,0-9.7-4.67-9.7-10.625S78.091,23,83.661,23ZM84.71,39.322c2.892,0,5.077-2.27,5.077-5.676S87.6,27.97,84.71,27.97c-2.762,0-4.9,2.27-4.9,5.676S81.947,39.322,84.71,39.322Z" transform="translate(18.5 5.75)"/><path class="a" d="M115.242,31.521V44.227H109.5V33.011c0-2.914-1.49-4.775-4.184-4.775-2.739,0-4.557,1.994-4.557,5.016v11H95V23.57h5.52v2.454A8.022,8.022,0,0,1,107.115,23C112.131,23,115.242,26.527,115.242,31.521Z" transform="translate(23.75 5.75)"/><path class="a" d="M123.76,25.077a8.1,8.1,0,0,1,6.16,2.614V14h5.705V46h-5.51v-2.29a8.012,8.012,0,0,1-6.29,2.786c-5.7,0-9.825-4.707-9.825-10.711C113.979,29.785,118.121,25.077,123.76,25.077Zm1.064,16.455c2.927,0,5.14-2.245,5.14-5.722s-2.213-5.722-5.14-5.722c-2.8,0-4.967,2.246-4.967,5.722S122.025,41.532,124.824,41.532Z" transform="translate(28.5 3.5)"/><path class="a" d="M162.491,19.855H152.469V46.5h-6.448V19.855H136V14h26.491Z" transform="translate(34 3.5)"/><path class="a" d="M153.7,33.656A10.459,10.459,0,0,1,164.121,23,10.284,10.284,0,0,1,174.5,33.336a14.07,14.07,0,0,1-.129,2.119H159.456a5.02,5.02,0,0,0,5.029,4.172c2.182,0,3.681-.856,4.172-2.354h5.394c-.814,3.851-4.174,6.976-9.888,6.976A10.336,10.336,0,0,1,153.7,33.656Zm5.756-1.9h9.416a4.6,4.6,0,0,0-4.538-4.087A4.964,4.964,0,0,0,159.456,31.752Z" transform="translate(38.425 5.75)"/><path class="a" d="M183.51,23c6.491,0,9.79,4.262,10.24,8.247h-5.634c-.492-1.821-1.864-3.127-4.541-3.127-2.849,0-4.991,2.185-4.991,5.526s2.143,5.526,4.991,5.526c2.677,0,4.027-1.37,4.541-3.127h5.634c-.45,3.942-3.77,8.2-10.24,8.2a10.625,10.625,0,1,1,0-21.25Z" transform="translate(43.2 5.75)"/><path class="a" d="M212.271,33.767v12.71h-5.764V35.257c0-2.915-1.49-4.777-4.186-4.777-2.739,0-4.558,1.994-4.558,5.019v11H192V14h5.764V27.916a8.218,8.218,0,0,1,6.355-2.7C209.159,25.242,212.271,28.77,212.271,33.767Z" transform="translate(48 3.5)"/></svg>