<?xml version="1.0" encoding="utf-8"?>
<!-- Generator: Adobe Illustrator 26.5.0, SVG Export Plug-In . SVG Version: 6.00 Build 0)  -->
<svg version="1.1" id="Layer_1" xmlns="http://www.w3.org/2000/svg" xmlns:xlink="http://www.w3.org/1999/xlink" x="0px" y="0px"
	 viewBox="0 0 1440 4465.438" style="enable-background:new 0 0 1440 4465.438;" xml:space="preserve">
<style type="text/css">
	.st0{clip-path:url(#SVGID_00000093154180759016632780000014959367068986293406_);}
	.st1{fill:#F5F5F5;}
	.st2{clip-path:url(#SVGID_00000036240889607803502470000008321680602247182015_);}
	.st3{fill:#FFFFFF;}
	.st4{clip-path:url(#SVGID_00000113324853029365317260000005096479233645808539_);}
	.st5{fill:#F9F9F9;}
	.st6{clip-path:url(#SVGID_00000043441156621119005820000011877493105675410830_);}
	.st7{clip-path:url(#SVGID_00000000902553195782623410000000483371069329632129_);}
	.st8{clip-path:url(#SVGID_00000106838502370807729090000015354067625387371156_);}
	.st9{fill:none;stroke:#FFFFFF;stroke-width:2;}
	.st10{fill:#FFFFFF;stroke:#FFFFFF;stroke-width:2;}
</style>
<g>
	<defs>
		<rect id="SVGID_1_" y="-934.562" width="1440" height="5400"/>
	</defs>
	<clipPath id="SVGID_00000154401671085774974370000008459661277304574594_">
		<use xlink:href="#SVGID_1_"  style="overflow:visible;"/>
	</clipPath>
	<g style="clip-path:url(#SVGID_00000154401671085774974370000008459661277304574594_);">
		<path class="st1" d="M2646,1886.438v3060h-3931L2646,1886.438z"/>
		<g>
			<defs>
				<rect id="SVGID_00000065764969795367946110000002182070490974878897_" y="-934.562" width="1440" height="9896"/>
			</defs>
			<clipPath id="SVGID_00000039093315687742607670000018435954041809428614_">
				<use xlink:href="#SVGID_00000065764969795367946110000002182070490974878897_"  style="overflow:visible;"/>
			</clipPath>
			<g style="clip-path:url(#SVGID_00000039093315687742607670000018435954041809428614_);">
				<rect y="-934.562" class="st3" width="1440" height="9896"/>
				<g>
					<defs>
						<rect id="SVGID_00000063597130028621343630000015669415154677767558_" x="-1" y="1435.438" width="1442" height="2286"/>
					</defs>
					<clipPath id="SVGID_00000125599513145175686120000004020185909504418185_">
						<use xlink:href="#SVGID_00000063597130028621343630000015669415154677767558_"  style="overflow:visible;"/>
					</clipPath>
					<g style="clip-path:url(#SVGID_00000125599513145175686120000004020185909504418185_);">
						<rect x="-1" y="1435.438" class="st1" width="1442" height="2286"/>
						<path class="st3" d="M2645,858.438v3060h-3931L2645,858.438z"/>
						<path class="st1" d="M2127,2052.438v1644H-66L2127,2052.438z"/>
						<path class="st5" d="M-1,2109.438l0-325h454L-1,2109.438z"/>
						<path class="st5" d="M-1,2109.438l0-325h454L-1,2109.438z"/>
						<path class="st5" d="M-1,2109.438l0-325h454L-1,2109.438z"/>
						<path class="st5" d="M-1,1464.438l0,320h454L-1,1464.438z"/>
						<path class="st5" d="M-1,1464.438l0,320h454L-1,1464.438z"/>
						<path class="st5" d="M-1,1464.438l0,320h454L-1,1464.438z"/>
					</g>
				</g>
				<g>
					<defs>
						<rect id="SVGID_00000133527881713080243700000008148639032110440341_" x="-1" y="-35.562" width="1442" height="1471"/>
					</defs>
					<clipPath id="SVGID_00000022539103095463518940000012643498060843471255_">
						<use xlink:href="#SVGID_00000133527881713080243700000008148639032110440341_"  style="overflow:visible;"/>
					</clipPath>
					<g style="clip-path:url(#SVGID_00000022539103095463518940000012643498060843471255_);">
						<rect x="-1" y="-35.562" class="st1" width="1442" height="1471"/>
						<path class="st5" d="M1455,33.438v325h-454L1455,33.438z"/>
						<path class="st5" d="M1455,33.438v325h-454L1455,33.438z"/>
						<path class="st5" d="M1455,33.438v325h-454L1455,33.438z"/>
						<path class="st5" d="M1455,678.438v-320h-454L1455,678.438z"/>
						<path class="st5" d="M1455,678.438v-320h-454L1455,678.438z"/>
						<path class="st5" d="M1455,678.438v-320h-454L1455,678.438z"/>
						<path class="st3" d="M-894,1346.438v-1629h2093L-894,1346.438z"/>
					</g>
				</g>
				<g>
					<defs>
						<rect id="SVGID_00000081619300210951262410000012094076940937396367_" x="2" y="3696.438" width="1440" height="769"/>
					</defs>
					<clipPath id="SVGID_00000183224512251213832860000011418166693147876739_">
						<use xlink:href="#SVGID_00000081619300210951262410000012094076940937396367_"  style="overflow:visible;"/>
					</clipPath>
					<g style="clip-path:url(#SVGID_00000183224512251213832860000011418166693147876739_);">
						<rect x="2" y="3696.438" class="st1" width="1440" height="769"/>
						<path class="st5" d="M2,4465.438l0-325h454L2,4465.438z"/>
						<path class="st5" d="M2,4465.438l0-325h454L2,4465.438z"/>
						<path class="st5" d="M2,4465.438l0-325h454L2,4465.438z"/>
						<path class="st5" d="M2,3820.438l0,320h454L2,3820.438z"/>
						<path class="st5" d="M2,3820.438l0,320h454L2,3820.438z"/>
						<path class="st5" d="M2,3820.438l0,320h454L2,3820.438z"/>
						<path class="st3" d="M1936,3345.438v2071H-724L1936,3345.438z"/>
					</g>
				</g>
			</g>
		</g>
		<g>
			<defs>
				<rect id="SVGID_00000073693084461476768350000015651534619648279456_" y="-934.562" width="1440" height="899"/>
			</defs>
			<clipPath id="SVGID_00000057866301381450426480000003134659133475858822_">
				<use xlink:href="#SVGID_00000073693084461476768350000015651534619648279456_"  style="overflow:visible;"/>
			</clipPath>
			<g style="clip-path:url(#SVGID_00000057866301381450426480000003134659133475858822_);">
				<path class="st1" d="M1642.05-676.637l-64.91,724.096L864-16.465L1642.05-676.637z"/>
			</g>
		</g>
		<path class="st9" d="M1.363,1198.428l128.688,130.01H1.363V1198.428z"/>
		<path class="st9" d="M1.449,1056.098l131.36-128.71l-0.001,128.71H1.449z"/>
		<path class="st9" d="M130.697,658.438L0.682,787.128l0-128.69H130.697z"/>
		<path class="st10" d="M1.449,1193.628l131.36-128.7v128.7H1.449z"/>
		<path class="st10" d="M1.363,792.638l128.688,130.01H1.363V792.638z"/>
		<path class="st9" d="M1435.45,792.448l-128.69-130.01h128.69V792.448z"/>
		<path class="st9" d="M1435.36,934.778L1304,1063.488v-128.71H1435.36z"/>
		<path class="st9" d="M1306.11,1332.438l130.02-128.69v128.69H1306.11z"/>
		<path class="st10" d="M1435.36,797.248L1304,925.948v-128.7H1435.36z"/>
		<path class="st10" d="M1435.45,1198.238l-128.69-130.01h128.69V1198.238z"/>
	</g>
</g>
</svg>
