<svg width="150" height="150" viewBox="0 0 150 150" fill="none" xmlns="http://www.w3.org/2000/svg">
<path d="M53.8125 49.125L32.0625 70.6875L35.8125 77.25L53.8125 59.8125L57 63.1875L35.0625 85.125L28.3125 87L13.3125 102L18.75 107.25L22.6875 103.312L22.3125 129.562H35.8125V117.188H49.6875V129.562H62.4375V121.312L88.6875 124.688L88.875 94.875L94.125 100.125L99.375 94.875L53.8125 49.125Z" fill="#00C4B3"/>
<path d="M73.125 95.0625H58.125V110.062H73.125V95.0625Z" fill="white"/>
<path d="M50.25 110.062L35.25 95.0625H50.25V110.062Z" fill="white"/>
<path d="M73.125 110.062H58.125V95.0625L73.125 110.062Z" fill="#042F5E"/>
<path d="M50.625 110.062H35.625V95.0625L50.625 110.062Z" fill="#042F5E"/>
<path d="M113.25 111.937L131.25 129.938L136.5 124.687L118.5 106.688" fill="#042F5E"/>
<path d="M83.4375 128.812C54.9375 128.812 31.875 105.75 31.875 77.25C31.875 48.75 54.9375 25.5 83.4375 25.5C111.938 25.5 135 48.75 135 77.25C135 105.75 111.938 128.812 83.4375 128.812ZM83.4375 33C59.0625 33 39.375 52.875 39.375 77.0625C39.375 101.25 59.25 121.125 83.4375 121.125C107.812 121.125 127.5 101.25 127.5 77.0625C127.5 52.875 107.812 33 83.4375 33Z" fill="#042F5E"/>
</svg>
