<svg width="118" height="118" viewBox="0 0 118 118" fill="none" xmlns="http://www.w3.org/2000/svg">
<path d="M30.5915 21.3875V34.6625L10.7233 54.7815H0V69.1185H12.1835L29.1313 86.2875V109.888L45.1645 93.6625H79.3403L94.695 109.888V83.3375L118 61.2125L85.9482 28.7625H38.6007L30.5915 21.3875Z" fill="#00C4B3"/>
<path d="M28.7773 55.3125C30.8139 55.3125 32.4648 53.6616 32.4648 51.625C32.4648 49.5884 30.8139 47.9375 28.7773 47.9375C26.7408 47.9375 25.0898 49.5884 25.0898 51.625C25.0898 53.6616 26.7408 55.3125 28.7773 55.3125Z" fill="white"/>
<path d="M79.1633 37.701H43.2471V41.949H79.1633V37.701Z" fill="white"/>
<path d="M48.8077 41.949H72.5257C75.0694 39.5697 76.8387 36.4803 77.6036 33.0823C78.3685 29.6843 78.0936 26.1348 76.8146 22.895C75.5357 19.6553 73.3118 16.8752 70.432 14.916C67.5522 12.9568 64.1497 11.9091 60.6667 11.9091C57.1836 11.9091 53.7811 12.9568 50.9013 14.916C48.0215 16.8752 45.7977 19.6553 44.5187 22.895C43.2397 26.1348 42.9648 29.6843 43.7297 33.0823C44.4946 36.4803 46.2639 39.5697 48.8077 41.949Z" fill="#042F5E"/>
<path fill-rule="evenodd" clip-rule="evenodd" d="M65.6375 33.7037V23.3787H55.3125L65.6375 33.7037Z" fill="white"/>
</svg>
